<svg id="Layer_3" enable-background="new 0 0 32 32" height="512" viewBox="0 0 32 32" width="512" xmlns="http://www.w3.org/2000/svg"><g><path d="m28.1026 10.01038-.34155-1.42834h1.36395c.55273 0 1-.44727 1-1s-.44727-1-1-1h-1.84222l-1.11969-4.68262c-.10742-.4502-.50977-.76758-.97266-.76758h-18.38086c-.46289 0-.86523.31738-.97266.76758l-1.11944 4.68261h-1.83856c-.55225 0-1 .44727-1 1s.44775 1 1 1h1.36041l-.34143 1.42828c-1.62549.18323-2.89789 1.55048-2.89789 3.22407v6.23926c0 1.60443 1.16736 2.93433 2.6958 3.20361v6.06006c0 1.1748.95557 2.13086 2.13037 2.13086h3.39111c1.1748 0 2.13037-.95605 2.13037-2.13086v-1.48907l3.0542-1.21503h3.1958l3.05469 1.2149v1.4892c0 1.1748.95508 2.13086 2.12988 2.13086h3.3916c1.1748 0 2.13086-.95605 2.13086-2.13086v-6.06006c1.52821-.26947 2.69532-1.59937 2.69532-3.20362v-6.23926c0-1.67346-1.27209-3.04052-2.8974-3.22399zm-20.50397-6.87854h16.80273l1.63574 6.8418h-20.07421zm1.74903 25.60546c0 .07227-.05859.13086-.13037.13086h-3.39112c-.07178 0-.13037-.05859-.13037-.13086v-.63867h1.11377c.55225 0 1-.44727 1-1s-.44775-1-1-1h-1.11377v-.67969h1.11377c.55225 0 1-.44727 1-1s-.44775-1-1-1h-1.11377v-.68457h3.65186zm11.30468-3.64202-2.49414-.99176c-.11719-.0459-.24219-.07031-.36914-.07031h-3.57861c-.12646 0-.25195.02441-.36963.07031l-2.49316.99146v-2.3606h9.30469v2.3609zm5.65235-1.67633h-1.11426c-.55273 0-1 .44727-1 1s.44727 1 1 1h1.11426v.67969h-1.11426c-.55273 0-1 .44727-1 1s.44727 1 1 1h1.11426v.63867c0 .07227-.05859.13086-.13086.13086h-3.3916c-.07129 0-.12988-.05859-.12988-.13086v-6.00293h3.65234zm2.69531-3.94532c0 .69531-.56543 1.26074-1.26074 1.26074h-7.30762v-1.875c0-.55273-.44727-1-1-1s-1 .44727-1 1v1.875h-1.43164v-1.875c0-.55273-.44775-1-1-1s-1 .44727-1 1v1.875h-1.43164v-1.875c0-.55273-.44775-1-1-1s-1 .44727-1 1v1.875h-7.30762c-.69531.00001-1.26074-.56542-1.26074-1.26074v-6.23926c0-.69531.56543-1.26074 1.26074-1.26074h23.47852c.69531 0 1.26074.56543 1.26074 1.26074z"/><path d="m7.16553 13.58496c-1.52686 0-2.76904 1.24219-2.76904 2.76953 0 1.52637 1.24219 2.76855 2.76904 2.76855 1.52734 0 2.76953-1.24219 2.76953-2.76855 0-1.52734-1.24219-2.76953-2.76953-2.76953zm0 3.53809c-.42383 0-.76904-.34473-.76904-.76855 0-.4248.34521-.76953.76904-.76953.42432 0 .76953.34473.76953.76953 0 .42382-.34522.76855-.76953.76855z"/><path d="m24.83398 13.58496c-1.52637 0-2.76855 1.24219-2.76855 2.76953 0 1.52637 1.24219 2.76855 2.76855 2.76855 1.52734 0 2.76953-1.24219 2.76953-2.76855.00001-1.52734-1.24218-2.76953-2.76953-2.76953zm0 3.53809c-.42383 0-.76855-.34473-.76855-.76855 0-.4248.34473-.76953.76855-.76953.4248 0 .76953.34473.76953.76953.00001.42382-.34472.76855-.76953.76855z"/></g></svg>