<?xml version="1.0" encoding="UTF-8" standalone="no"?>
<!-- Created with Inkscape (http://www.inkscape.org/) -->

<svg
   version="1.1"
   id="svg1452"
   xml:space="preserve"
   width="682.66669"
   height="682.66669"
   viewBox="0 0 682.66669 682.66669"
   xmlns="http://www.w3.org/2000/svg"
   xmlns:svg="http://www.w3.org/2000/svg"><defs
     id="defs1456"><clipPath
       clipPathUnits="userSpaceOnUse"
       id="clipPath1466"><path
         d="M 0,512 H 512 V 0 H 0 Z"
         id="path1464" /></clipPath></defs><g
     id="g1458"
     transform="matrix(1.3333333,0,0,-1.3333333,0,682.66667)"><g
       id="g1460"><g
         id="g1462"
         clip-path="url(#clipPath1466)"><g
           id="g1468"
           transform="translate(231,205)"><path
             d="m 0,0 c 0,-8.284 -6.716,-15 -15,-15 -8.284,0 -15,6.716 -15,15 0,8.284 6.716,15 15,15 C -6.716,15 0,8.284 0,0"
             style="fill:#000000;fill-opacity:1;fill-rule:nonzero;stroke:none"
             id="path1470" /></g><g
           id="g1472"
           transform="translate(311,205)"><path
             d="m 0,0 c 0,-8.284 -6.716,-15 -15,-15 -8.284,0 -15,6.716 -15,15 0,8.284 6.716,15 15,15 C -6.716,15 0,8.284 0,0"
             style="fill:#000000;fill-opacity:1;fill-rule:nonzero;stroke:none"
             id="path1474" /></g><g
           id="g1476"
           transform="translate(312.9204,292.9595)"><path
             d="m 0,0 c -17.072,7.697 -36.42,12.041 -56.92,12.041 -20.502,0 -39.852,-4.344 -56.925,-12.043 0.001,0.001 0.003,0.002 0.004,0.002 l -68.079,37.041 v -135 c 0,-60.752 55.964,-110 125,-110 69.035,0 125,49.248 125,110 v 135 z"
             style="fill:none;stroke:#000000;stroke-width:30;stroke-linecap:round;stroke-linejoin:round;stroke-miterlimit:10;stroke-dasharray:none;stroke-opacity:1"
             id="path1478" /></g><g
           id="g1480"
           transform="translate(341,170)"><path
             d="M 0,0 60,10"
             style="fill:none;stroke:#000000;stroke-width:30;stroke-linecap:round;stroke-linejoin:round;stroke-miterlimit:10;stroke-dasharray:none;stroke-opacity:1"
             id="path1482" /></g><g
           id="g1484"
           transform="translate(111,180)"><path
             d="M 0,0 60,-10"
             style="fill:none;stroke:#000000;stroke-width:30;stroke-linecap:round;stroke-linejoin:round;stroke-miterlimit:10;stroke-dasharray:none;stroke-opacity:1"
             id="path1486" /></g><g
           id="g1488"
           transform="translate(341,130)"><path
             d="M 0,0 60,-10"
             style="fill:none;stroke:#000000;stroke-width:30;stroke-linecap:round;stroke-linejoin:round;stroke-miterlimit:10;stroke-dasharray:none;stroke-opacity:1"
             id="path1490" /></g><g
           id="g1492"
           transform="translate(111,120)"><path
             d="M 0,0 60,10"
             style="fill:none;stroke:#000000;stroke-width:30;stroke-linecap:round;stroke-linejoin:round;stroke-miterlimit:10;stroke-dasharray:none;stroke-opacity:1"
             id="path1494" /></g><g
           id="g1496"
           transform="translate(15,326)"><path
             d="M 0,0 241,160 482,0"
             style="fill:none;stroke:#000000;stroke-width:30;stroke-linecap:round;stroke-linejoin:round;stroke-miterlimit:10;stroke-dasharray:none;stroke-opacity:1"
             id="path1498" /></g><g
           id="g1500"
           transform="translate(256,486)"><path
             d="M 0,0 -211,-140.083 V -460 h 422 v 319.917 z"
             style="fill:none;stroke:#000000;stroke-width:30;stroke-linecap:round;stroke-linejoin:round;stroke-miterlimit:10;stroke-dasharray:none;stroke-opacity:1"
             id="path1502" /></g></g></g></g></svg>
