<?xml version="1.0" encoding="utf-8"?>
<!-- Generator: Adobe Illustrator 27.5.0, SVG Export Plug-In . SVG Version: 6.00 Build 0)  -->
<svg version="1.1" id="pixel" xmlns="http://www.w3.org/2000/svg" xmlns:xlink="http://www.w3.org/1999/xlink" x="0px" y="0px"
	 viewBox="0 0 4800 4800" style="enable-background:new 0 0 4800 4800;" xml:space="preserve">
<g>
	<g>
		<path style="fill-rule:evenodd;clip-rule:evenodd;" d="M2400,800V700h1700v100h-100v100h100V800h100v100h100h100v100v100v100h-100
			v100v100h100v100v100v100h-300H2700h-400h-300h-600v-100h100h100v-100v-100v-100v-100v-100h100v200v300h800v-100v-100h100v100v100
			h100v-100v-100h100v100v100h100h100h400v-100v-100h-100h-100h-100h-100h-100h-100v-100h400h200h100v100v100v100h100h500h100h100
			v-100h-400h-200h-100v-100v-200v-100h100h300h300v-100h-100h-100h-100h-100h-100h-300V900h100h100V800h-100h-200h-100h-100v100
			h-100V800h-100v100h-100V800h-100H2400L2400,800z M3900,900V800h-100v100H3900L3900,900z M3700,1400h100h100h100h100h100v-100
			v-100h-100h-100h-100h-100h-100v100V1400L3700,1400z"/>
		<polygon style="fill-rule:evenodd;clip-rule:evenodd;" points="2200,900 2200,800 2300,800 2400,800 2400,900 2300,900 2200,900 
					"/>
		<polygon style="fill-rule:evenodd;clip-rule:evenodd;fill:#64856B;" points="2400,800 2800,800 2800,900 2900,900 2900,1000 
			2800,1000 2800,1100 2700,1100 2600,1100 2600,1200 2500,1200 2500,1300 2400,1300 2300,1300 2300,1400 2200,1400 2100,1400 
			2000,1400 1900,1400 1800,1400 1800,1300 1700,1300 1700,1100 1800,1100 1900,1100 1900,1000 2000,1000 2100,1000 2200,1000 
			2200,900 2300,900 2400,900 2400,800 		"/>
		<polygon style="fill-rule:evenodd;clip-rule:evenodd;fill:#375A3E;" points="2800,800 2900,800 2900,900 2800,900 2800,800 		"/>
		<polygon style="fill-rule:evenodd;clip-rule:evenodd;fill:#D27F7F;" points="3000,900 3000,800 3100,800 3100,900 3000,900 		"/>
		<polygon style="fill-rule:evenodd;clip-rule:evenodd;fill:#64856B;" points="3200,900 3200,800 3300,800 3400,800 3600,800 
			3600,900 3500,900 3300,900 3200,900 		"/>
		<polygon style="fill-rule:evenodd;clip-rule:evenodd;fill:#375A3E;" points="3600,900 3600,800 3700,800 3700,900 3600,900 		"/>
		<polygon style="fill-rule:evenodd;clip-rule:evenodd;fill:#AC5353;" points="3800,900 3800,800 3900,800 3900,900 3800,900 		"/>
		<polygon style="fill-rule:evenodd;clip-rule:evenodd;fill:#64856B;" points="4100,800 4100,900 4000,900 4000,800 4100,800 		"/>
		<polygon style="fill-rule:evenodd;clip-rule:evenodd;" points="1900,1000 1900,900 2000,900 2100,900 2200,900 2200,1000 
			2100,1000 2000,1000 1900,1000 		"/>
		<polygon style="fill-rule:evenodd;clip-rule:evenodd;fill:#375A3E;" points="2900,900 3000,900 3000,1000 3000,1100 2900,1100 
			2800,1100 2800,1000 2900,1000 2900,900 		"/>
		<polygon style="fill-rule:evenodd;clip-rule:evenodd;" points="3000,900 3100,900 3100,1000 3100,1100 3200,1100 3200,1000 
			3200,900 3300,900 3300,1000 3300,1100 3400,1100 3400,1000 3500,1000 3500,1200 3200,1200 2900,1200 2700,1200 2700,1100 
			2800,1100 2900,1100 3000,1100 3000,1000 3000,900 		"/>
		<polygon style="fill-rule:evenodd;clip-rule:evenodd;fill:#AC5353;" points="3100,900 3200,900 3200,1000 3200,1100 3100,1100 
			3100,1000 3100,900 		"/>
		<polygon style="fill-rule:evenodd;clip-rule:evenodd;fill:#375A3E;" points="3300,900 3500,900 3500,1000 3400,1000 3400,1100 
			3300,1100 3300,1000 3300,900 		"/>
		<polygon style="fill-rule:evenodd;clip-rule:evenodd;" points="1700,1100 1700,1000 1800,1000 1900,1000 1900,1100 1800,1100 
			1700,1100 		"/>
		<polygon style="fill-rule:evenodd;clip-rule:evenodd;fill:#BBB887;" points="3500,1000 3800,1000 3900,1000 4000,1000 4100,1000 
			4200,1000 4300,1000 4300,1100 4000,1100 3700,1100 3600,1100 3600,1200 3500,1200 3500,1000 		"/>
		<polygon style="fill-rule:evenodd;clip-rule:evenodd;fill:#375A3E;" points="2600,1200 2600,1100 2700,1100 2700,1200 2600,1200 
					"/>
		<polygon style="fill-rule:evenodd;clip-rule:evenodd;fill:#375A3E;" points="2600,1200 2600,1400 2500,1400 2500,1500 2500,1600 
			1700,1600 1700,1300 1800,1300 1800,1400 1900,1400 2000,1400 2100,1400 2200,1400 2300,1400 2300,1300 2400,1300 2500,1300 
			2500,1200 2600,1200 		"/>
		<polygon style="fill-rule:evenodd;clip-rule:evenodd;" points="2600,1200 2700,1200 2700,1300 2700,1400 2600,1400 2600,1200 		
			"/>
		<polygon style="fill-rule:evenodd;clip-rule:evenodd;fill:#BBB887;" points="2700,1300 2700,1200 2900,1200 3200,1200 3200,1300 
			2800,1300 2700,1300 		"/>
		<polygon style="fill-rule:evenodd;clip-rule:evenodd;fill:#8D8B5D;" points="3200,1300 3200,1200 3500,1200 3600,1200 3600,1400 
			3600,1500 3700,1500 3900,1500 4300,1500 4300,1600 4200,1600 4100,1600 3600,1600 3500,1600 3500,1500 3500,1400 3500,1300 
			3400,1300 3200,1300 		"/>
		<polygon style="fill-rule:evenodd;clip-rule:evenodd;fill:#375A3E;" points="3700,1300 3700,1200 3800,1200 3900,1200 4000,1200 
			4100,1200 4200,1200 4200,1300 4200,1400 4100,1400 4000,1400 3900,1400 3800,1400 3700,1400 3700,1300 		"/>
		<polygon style="fill-rule:evenodd;clip-rule:evenodd;fill:#8D8B5D;" points="2700,1400 2700,1300 2800,1300 2800,1400 2700,1400 
					"/>
		<polygon style="fill-rule:evenodd;clip-rule:evenodd;fill:#8D8B5D;" points="2600,1400 2700,1400 2700,1500 2700,1600 2600,1600 
			2600,1500 2600,1400 		"/>
		<polygon style="fill-rule:evenodd;clip-rule:evenodd;fill:#375A3E;" points="2800,1400 2900,1400 3000,1400 3100,1400 3200,1400 
			3300,1400 3400,1400 3400,1500 3400,1600 3000,1600 2900,1600 2800,1600 2800,1500 2800,1400 		"/>
		<polygon style="fill-rule:evenodd;clip-rule:evenodd;" points="1400,1700 1400,1800 1500,1800 1600,1800 1700,1800 1800,1800 
			1900,1800 2000,1800 2100,1800 2200,1800 2200,1900 2200,2000 2200,2100 2100,2100 2100,2000 2100,1900 2000,1900 1700,1900 
			1300,1900 1300,1800 1300,1700 1400,1700 		"/>
		<polygon style="fill-rule:evenodd;clip-rule:evenodd;fill:#DFD8CB;" points="1400,1700 2000,1700 2300,1700 2700,1700 4100,1700 
			4100,1800 3700,1800 3600,1800 3300,1800 3100,1800 2800,1800 2400,1800 2300,1800 2300,1900 2300,2000 2200,2000 2200,1900 
			2200,1800 2100,1800 2000,1800 1900,1800 1800,1800 1700,1800 1600,1800 1500,1800 1400,1800 1400,1700 		"/>
		<polygon style="fill-rule:evenodd;clip-rule:evenodd;fill:#B5AC9A;" points="4100,1800 4100,1700 4400,1700 4400,1800 4100,1800 
					"/>
		<polygon style="fill-rule:evenodd;clip-rule:evenodd;" points="4400,1700 4500,1700 4500,1800 4500,1900 4100,1900 3900,1900 
			3800,1900 3800,2000 3800,2100 3800,2200 3800,2400 4200,2400 4500,2400 4600,2400 4600,2300 4600,2200 4600,2100 4700,2100 
			4700,2200 4700,2500 4600,2500 3700,2500 3700,1800 4100,1800 4400,1800 4400,1700 		"/>
		<polygon style="fill-rule:evenodd;clip-rule:evenodd;fill:#B5AC9A;" points="2400,1800 2400,1900 2400,2000 2300,2000 2300,1900 
			2300,1800 2400,1800 		"/>
		<path style="fill-rule:evenodd;clip-rule:evenodd;" d="M2400,1800h400h300h200h300v300v200v500h-100v-100v-100v-100h-100h-300
			h-200h-400h-100h-100v100v100v100h-100v-100v-100h-100h-100h-100h-100h-100h-100h-100h-100h-100v100h-100v-100h-100h-100v100H900
			v-100H800H700H600H500H400H300v100H200v-100H100v-100v-100h100v100h100h100h100h100h100h100h300h300h200h400h100v-100v-100h100
			v100h100v-100h200v100h100h100h100h100v-100v-100v-200v-100h-100h-100h-100h-100v100h100v100v100v100h-100v-100v-100h-100h-100
			v-100h100v-100V1800L2400,1800z M3000,2200v100v100h100h100h100h100h100v-200v-200v-100h-100h-100h-100h-100h-100V2200L3000,2200z
			"/>
		<polygon style="fill-rule:evenodd;clip-rule:evenodd;fill:#B5AC9A;" points="3600,1800 3700,1800 3700,2500 3700,2600 3800,2600 
			3900,2600 4000,2600 4100,2600 4200,2600 4300,2600 4400,2600 4500,2600 4600,2600 4600,2500 4700,2500 4700,3000 4600,3000 
			4500,3000 4500,2900 4400,2900 4400,2800 4300,2800 4300,2700 4200,2700 4100,2700 4000,2700 3900,2700 3800,2700 3700,2700 
			3700,2800 3600,2800 3600,2300 3600,2100 3600,1800 		"/>
		<polygon style="fill-rule:evenodd;clip-rule:evenodd;" points="1300,1900 1300,2100 1200,2100 1200,2000 1200,1900 1300,1900 		
			"/>
		<polygon style="fill-rule:evenodd;clip-rule:evenodd;fill:#003E5C;" points="1300,1900 1700,1900 2000,1900 2100,1900 2100,2000 
			2100,2100 2000,2100 2000,2200 1900,2200 1900,2100 1800,2100 1700,2100 1600,2100 1300,2100 1300,1900 		"/>
		<polygon style="fill-rule:evenodd;clip-rule:evenodd;fill:#003E5C;" points="2900,2200 2800,2200 2800,2100 2700,2100 2600,2100 
			2600,2000 2500,2000 2500,1900 2600,1900 2700,1900 2800,1900 2900,1900 2900,2000 2900,2200 		"/>
		<polygon style="fill-rule:evenodd;clip-rule:evenodd;fill:#003E5C;" points="3500,2200 3400,2200 3400,2100 3300,2100 3200,2100 
			3100,2100 3100,2200 3000,2200 3000,1900 3100,1900 3200,1900 3300,1900 3400,1900 3500,1900 3500,2000 3500,2200 		"/>
		<polygon style="fill-rule:evenodd;clip-rule:evenodd;fill:#003E5C;" points="4500,1900 4500,2100 4200,2100 4100,2100 4000,2100 
			3900,2100 3900,2200 3800,2200 3800,2100 3800,2000 3800,1900 3900,1900 4100,1900 4500,1900 		"/>
		<polygon style="fill-rule:evenodd;clip-rule:evenodd;" points="4500,1900 4600,1900 4600,2000 4600,2100 4500,2100 4500,1900 		
			"/>
		<polygon style="fill-rule:evenodd;clip-rule:evenodd;fill:#B5AC9A;" points="2200,2100 2200,2000 2300,2000 2300,2100 2200,2100 
					"/>
		<polygon style="fill-rule:evenodd;clip-rule:evenodd;" points="1200,2100 1200,2200 1200,2300 1300,2300 1400,2300 1500,2300 
			1600,2300 1700,2300 2000,2300 2000,2400 1100,2400 700,2400 300,2400 200,2400 200,2300 300,2300 400,2300 700,2300 1000,2300 
			1100,2300 1100,2200 1100,2100 1200,2100 		"/>
		<polygon style="fill-rule:evenodd;clip-rule:evenodd;fill:#003E5C;" points="1200,2200 1200,2100 1300,2100 1300,2200 1200,2200 
					"/>
		<polygon style="fill-rule:evenodd;clip-rule:evenodd;fill:#106F83;" points="1300,2100 1600,2100 1700,2100 1800,2100 1900,2100 
			1900,2200 2000,2200 2000,2300 1700,2300 1600,2300 1500,2300 1400,2300 1300,2300 1200,2300 1200,2200 1300,2200 1300,2100 		"/>
		<polygon style="fill-rule:evenodd;clip-rule:evenodd;" points="2000,2200 2000,2100 2100,2100 2100,2300 2000,2300 2000,2200 		
			"/>
		<polygon style="fill-rule:evenodd;clip-rule:evenodd;fill:#DFD8CB;" points="2100,2100 2200,2100 2200,2300 2100,2300 2100,2100 
					"/>
		<polygon style="fill-rule:evenodd;clip-rule:evenodd;" points="2200,2100 2300,2100 2300,2200 2300,2300 2200,2300 2200,2100 		
			"/>
		<polygon style="fill-rule:evenodd;clip-rule:evenodd;fill:#DFD8CB;" points="2300,2200 2300,2100 2400,2100 2500,2100 2500,2200 
			2300,2200 		"/>
		<polygon style="fill-rule:evenodd;clip-rule:evenodd;fill:#106F83;" points="2600,2100 2700,2100 2800,2100 2800,2200 2900,2200 
			2900,2300 2900,2400 2800,2400 2700,2400 2600,2400 2500,2400 2500,2300 2600,2300 2600,2200 2600,2100 		"/>
		<polygon style="fill-rule:evenodd;clip-rule:evenodd;fill:#106F83;" points="3500,2200 3500,2400 3400,2400 3300,2400 3200,2400 
			3100,2400 3000,2400 3000,2300 3000,2200 3100,2200 3100,2100 3200,2100 3300,2100 3400,2100 3400,2200 3500,2200 		"/>
		<polygon style="fill-rule:evenodd;clip-rule:evenodd;fill:#106F83;" points="4500,2100 4500,2200 4600,2200 4600,2300 4600,2400 
			4500,2400 4200,2400 3800,2400 3800,2200 3900,2200 3900,2100 4000,2100 4100,2100 4200,2100 4500,2100 		"/>
		<polygon style="fill-rule:evenodd;clip-rule:evenodd;fill:#003E5C;" points="4500,2100 4600,2100 4600,2200 4500,2200 4500,2100 
					"/>
		<polygon style="fill-rule:evenodd;clip-rule:evenodd;fill:#B5AC9A;" points="2300,2300 2300,2200 2500,2200 2500,2300 2300,2300 
					"/>
		<polygon style="fill-rule:evenodd;clip-rule:evenodd;fill:#DFD8CB;" points="2000,2400 2000,2300 2100,2300 2100,2400 2000,2400 
					"/>
		<polygon style="fill-rule:evenodd;clip-rule:evenodd;fill:#B5AC9A;" points="2200,2300 2300,2300 2300,2400 2200,2400 2200,2300 
					"/>
		<polygon style="fill-rule:evenodd;clip-rule:evenodd;fill:#DFD8CB;" points="200,2400 300,2400 700,2400 1100,2400 2000,2400 
			2000,2500 1600,2500 1400,2500 1100,2500 800,2500 700,2500 600,2500 500,2500 400,2500 300,2500 200,2500 200,2400 		"/>
		<polygon style="fill-rule:evenodd;clip-rule:evenodd;fill:#B5AC9A;" points="2000,2500 2000,2400 2100,2400 2100,2500 2000,2500 
					"/>
		<polygon style="fill-rule:evenodd;clip-rule:evenodd;fill:#DFD8CB;" points="3400,2500 3400,2600 3300,2600 3100,2600 2800,2600 
			2700,2600 2600,2600 2500,2600 2500,2700 2400,2700 2300,2700 2300,2600 2300,2500 2400,2500 2500,2500 2900,2500 3100,2500 
			3400,2500 		"/>
		<polygon style="fill-rule:evenodd;clip-rule:evenodd;fill:#B5AC9A;" points="3400,2500 3500,2500 3500,2600 3500,2700 3500,2800 
			3400,2800 3400,2900 3400,3000 3400,3100 3100,3100 2800,3100 2500,3100 2200,3100 2200,2800 2300,2800 2300,2700 2400,2700 
			2500,2700 2500,2600 2600,2600 2700,2600 2800,2600 3100,2600 3100,2700 3200,2700 3300,2700 3300,2600 3400,2600 3400,2500 		"/>
		<polygon style="fill-rule:evenodd;clip-rule:evenodd;fill:#DFD8CB;" points="3700,2500 4600,2500 4600,2600 4500,2600 4400,2600 
			4300,2600 4200,2600 4100,2600 4000,2600 3900,2600 3800,2600 3700,2600 3700,2500 		"/>
		<polygon style="fill-rule:evenodd;clip-rule:evenodd;" points="4700,2500 4800,2500 4800,3400 4700,3400 4700,3200 4700,3100 
			4600,3100 4500,3100 4500,3300 4500,3400 4600,3400 4700,3400 4700,3500 4500,3500 4500,3700 4500,3800 4400,3800 4400,3400 
			4400,3300 4400,3200 4300,3200 4300,3100 4400,3100 4400,3000 4400,2900 4500,2900 4500,3000 4600,3000 4700,3000 4700,2500 		"/>
		<polygon style="fill-rule:evenodd;clip-rule:evenodd;" points="0,2600 100,2600 100,2700 200,2700 200,2800 100,2800 100,2900 
			200,2900 300,2900 400,2900 1200,2900 1200,3000 900,3000 500,3000 300,3000 200,3000 100,3000 100,3100 100,3200 0,3200 0,2600 
					"/>
		<polygon style="fill-rule:evenodd;clip-rule:evenodd;fill:#FFD44D;" points="100,2600 200,2600 200,2700 100,2700 100,2600 		"/>
		<polygon style="fill-rule:evenodd;clip-rule:evenodd;fill:#B5AC9A;" points="300,2700 300,2600 400,2600 500,2600 600,2600 
			700,2600 800,2600 900,2600 900,2700 300,2700 		"/>
		<polygon style="fill-rule:evenodd;clip-rule:evenodd;fill:#FFD44D;" points="1000,2700 1000,2600 1100,2600 1100,2700 1000,2700 
					"/>
		<polygon style="fill-rule:evenodd;clip-rule:evenodd;fill:#B07F23;" points="1100,2700 1100,2600 1200,2600 1200,2700 1100,2700 
					"/>
		<polygon style="fill-rule:evenodd;clip-rule:evenodd;fill:#B5AC9A;" points="1300,2700 1300,2600 1400,2600 1500,2600 1600,2600 
			1700,2600 1800,2600 1900,2600 2000,2600 2100,2600 2200,2600 2200,2700 2200,2800 2100,2800 2100,2900 2000,2900 2000,2800 
			1900,2800 1900,2700 1800,2700 1700,2700 1300,2700 		"/>
		<polygon style="fill-rule:evenodd;clip-rule:evenodd;" points="3100,2600 3300,2600 3300,2700 3200,2700 3100,2700 3100,2600 		
			"/>
		<polygon style="fill-rule:evenodd;clip-rule:evenodd;fill:#DFD8CB;" points="200,2800 200,2700 300,2700 900,2700 1000,2700 
			1000,2800 200,2800 		"/>
		<polygon style="fill-rule:evenodd;clip-rule:evenodd;" points="1000,2800 1000,2700 1100,2700 1200,2700 1200,2800 1000,2800 		
			"/>
		<polygon style="fill-rule:evenodd;clip-rule:evenodd;fill:#B5AC9A;" points="1200,2800 1200,2700 1300,2700 1300,2800 1200,2800 
					"/>
		<polygon style="fill-rule:evenodd;clip-rule:evenodd;" points="1300,2800 1300,2700 1700,2700 1800,2700 1900,2700 1900,2800 
			1300,2800 		"/>
		<polygon style="fill-rule:evenodd;clip-rule:evenodd;" points="3700,2800 3700,2700 3800,2700 3900,2700 4000,2700 4100,2700 
			4200,2700 4300,2700 4300,2800 3700,2800 		"/>
		<polygon style="fill-rule:evenodd;clip-rule:evenodd;fill:#B5AC9A;" points="200,2800 1000,2800 1200,2800 1200,2900 400,2900 
			300,2900 200,2900 100,2900 100,2800 200,2800 		"/>
		<polygon style="fill-rule:evenodd;clip-rule:evenodd;" points="1200,2900 1200,2800 1300,2800 1300,2900 1200,2900 		"/>
		<polygon style="fill-rule:evenodd;clip-rule:evenodd;fill:#BBB887;" points="1300,2900 1300,2800 1900,2800 1900,2900 1800,2900 
			1400,2900 1300,2900 		"/>
		<polygon style="fill-rule:evenodd;clip-rule:evenodd;" points="1900,2900 1900,2800 2000,2800 2000,2900 1900,2900 		"/>
		<polygon style="fill-rule:evenodd;clip-rule:evenodd;" points="2200,2800 2200,3100 2100,3100 2100,3000 2000,3000 2000,2900 
			2100,2900 2100,2800 2200,2800 		"/>
		<polygon style="fill-rule:evenodd;clip-rule:evenodd;" points="3500,2800 3500,2900 3600,2900 3600,3000 3500,3000 3500,3100 
			3400,3100 3400,3000 3400,2900 3400,2800 3500,2800 		"/>
		<polygon style="fill-rule:evenodd;clip-rule:evenodd;fill:#B5AC9A;" points="3500,2800 3600,2800 3600,2900 3500,2900 3500,2800 
					"/>
		<polygon style="fill-rule:evenodd;clip-rule:evenodd;" points="3600,2900 3600,2800 3700,2800 3700,2900 3600,2900 		"/>
		<polygon style="fill-rule:evenodd;clip-rule:evenodd;fill:#BBB887;" points="3700,2900 3700,2800 4300,2800 4300,2900 4200,2900 
			3800,2900 3700,2900 		"/>
		<polygon style="fill-rule:evenodd;clip-rule:evenodd;" points="4300,2900 4300,2800 4400,2800 4400,2900 4300,2900 		"/>
		<polygon style="fill-rule:evenodd;clip-rule:evenodd;fill:#BBB887;" points="1200,3000 1200,2900 1300,2900 1300,3000 1200,3000 
					"/>
		<polygon style="fill-rule:evenodd;clip-rule:evenodd;fill:#8D8B5D;" points="1300,3000 1300,2900 1400,2900 1400,3000 1300,3000 
					"/>
		<polygon style="fill-rule:evenodd;clip-rule:evenodd;" points="1400,3000 1400,2900 1800,2900 1800,3000 1400,3000 		"/>
		<polygon style="fill-rule:evenodd;clip-rule:evenodd;fill:#8D8B5D;" points="1800,3000 1800,2900 1900,2900 1900,3000 1800,3000 
					"/>
		<polygon style="fill-rule:evenodd;clip-rule:evenodd;fill:#BBB887;" points="1900,3000 1900,2900 2000,2900 2000,3000 1900,3000 
					"/>
		<polygon style="fill-rule:evenodd;clip-rule:evenodd;fill:#BBB887;" points="3600,3000 3600,2900 3700,2900 3700,3000 3600,3000 
					"/>
		<polygon style="fill-rule:evenodd;clip-rule:evenodd;fill:#8D8B5D;" points="3700,3000 3700,2900 3800,2900 3800,3000 3700,3000 
					"/>
		<polygon style="fill-rule:evenodd;clip-rule:evenodd;" points="3800,3000 3800,2900 4200,2900 4200,3000 3800,3000 		"/>
		<polygon style="fill-rule:evenodd;clip-rule:evenodd;fill:#8D8B5D;" points="4200,3000 4200,2900 4300,2900 4400,2900 4400,3000 
			4400,3100 4300,3100 4300,3000 4200,3000 		"/>
		<polygon style="fill-rule:evenodd;clip-rule:evenodd;fill:#BBB887;" points="100,3100 100,3000 200,3000 300,3000 500,3000 
			900,3000 1200,3000 1200,3100 900,3100 600,3100 300,3100 100,3100 		"/>
		<polygon style="fill-rule:evenodd;clip-rule:evenodd;fill:#8D8B5D;" points="1200,3100 1200,3000 1300,3000 1300,3100 1200,3100 
					"/>
		<polygon style="fill-rule:evenodd;clip-rule:evenodd;" points="1300,3100 1300,3000 1400,3000 1400,3100 1300,3100 		"/>
		<polygon style="fill-rule:evenodd;clip-rule:evenodd;fill:#745244;" points="1400,3000 1800,3000 1800,3100 1700,3100 1600,3100 
			1600,3200 1500,3200 1500,3300 1400,3300 1400,3400 1400,3500 1400,3600 1300,3600 1200,3600 1200,3200 1300,3200 1300,3100 
			1400,3100 1400,3000 		"/>
		<polygon style="fill-rule:evenodd;clip-rule:evenodd;" points="1800,3100 1800,3000 1900,3000 1900,3100 1800,3100 		"/>
		<polygon style="fill-rule:evenodd;clip-rule:evenodd;fill:#8D8B5D;" points="1900,3100 1900,3000 2000,3000 2000,3100 1900,3100 
					"/>
		<polygon style="fill-rule:evenodd;clip-rule:evenodd;fill:#BBB887;" points="2000,3100 2000,3000 2100,3000 2100,3100 2000,3100 
					"/>
		<polygon style="fill-rule:evenodd;clip-rule:evenodd;fill:#BBB887;" points="3500,3100 3500,3000 3600,3000 3600,3100 3500,3100 
					"/>
		<polygon style="fill-rule:evenodd;clip-rule:evenodd;fill:#8D8B5D;" points="3600,3100 3600,3000 3700,3000 3700,3100 3600,3100 
					"/>
		<polygon style="fill-rule:evenodd;clip-rule:evenodd;" points="3700,3100 3700,3000 3800,3000 3800,3100 3700,3100 		"/>
		<polygon style="fill-rule:evenodd;clip-rule:evenodd;fill:#745244;" points="3800,3000 4200,3000 4200,3100 4100,3100 4000,3100 
			4000,3200 3900,3200 3900,3300 3800,3300 3800,3400 3800,3500 3800,3600 3700,3600 3600,3600 3600,3200 3700,3200 3700,3100 
			3800,3100 3800,3000 		"/>
		<polygon style="fill-rule:evenodd;clip-rule:evenodd;" points="4200,3100 4200,3000 4300,3000 4300,3100 4200,3100 		"/>
		<polygon style="fill-rule:evenodd;clip-rule:evenodd;fill:#8D8B5D;" points="100,3200 100,3100 300,3100 600,3100 900,3100 
			1200,3100 1200,3200 900,3200 600,3200 300,3200 100,3200 		"/>
		<polygon style="fill-rule:evenodd;clip-rule:evenodd;" points="1200,3200 1200,3100 1300,3100 1300,3200 1200,3200 		"/>
		<polygon style="fill-rule:evenodd;clip-rule:evenodd;fill:#513529;" points="1600,3200 1600,3100 1700,3100 1800,3100 1800,3200 
			1600,3200 		"/>
		<polygon style="fill-rule:evenodd;clip-rule:evenodd;fill:#745244;" points="1800,3200 1800,3100 1900,3100 1900,3200 1800,3200 
					"/>
		<polygon style="fill-rule:evenodd;clip-rule:evenodd;" points="1900,3200 1900,3100 2000,3100 2000,3200 1900,3200 		"/>
		<polygon style="fill-rule:evenodd;clip-rule:evenodd;fill:#8D8B5D;" points="2000,3200 2000,3100 2100,3100 2200,3100 2200,3200 
			2200,3300 2100,3300 2100,3200 2000,3200 		"/>
		<path style="fill-rule:evenodd;clip-rule:evenodd;" d="M2200,3100h300h300h300h300v100v100h100v-100h100v400v200h-100v-100v-100
			h-100v100h-100v-100h-100h-100v100h-100v-100h-100h-100h-100v100v100h-100v-100v-100h-400h-100v100v100h-100v-300v-200v-100h100
			v100h100v-100V3100L2200,3100z M2300,3300h100h100h800v-100h-100h-100h-800V3300L2300,3300z M2100,3500h100h300h300h700v-100h-100
			h-100h-100h-200h-300h-600V3500L2100,3500z"/>
		<polygon style="fill-rule:evenodd;clip-rule:evenodd;fill:#8D8B5D;" points="3400,3100 3500,3100 3600,3100 3600,3200 3500,3200 
			3500,3300 3400,3300 3400,3200 3400,3100 		"/>
		<polygon style="fill-rule:evenodd;clip-rule:evenodd;" points="3600,3200 3600,3100 3700,3100 3700,3200 3600,3200 		"/>
		<polygon style="fill-rule:evenodd;clip-rule:evenodd;fill:#513529;" points="4000,3200 4000,3100 4100,3100 4200,3100 4200,3200 
			4000,3200 		"/>
		<polygon style="fill-rule:evenodd;clip-rule:evenodd;fill:#745244;" points="4200,3200 4200,3100 4300,3100 4300,3200 4200,3200 
					"/>
		<polygon style="fill-rule:evenodd;clip-rule:evenodd;fill:#8D8B5D;" points="4600,3100 4600,3200 4700,3200 4700,3400 4600,3400 
			4500,3400 4500,3300 4500,3100 4600,3100 		"/>
		<polygon style="fill-rule:evenodd;clip-rule:evenodd;fill:#BBB887;" points="4600,3100 4700,3100 4700,3200 4600,3200 4600,3100 
					"/>
		<polygon style="fill-rule:evenodd;clip-rule:evenodd;" points="100,3200 300,3200 600,3200 900,3200 1200,3200 1200,3600 
			1200,3800 1100,3800 1100,3700 1100,3600 1000,3600 1000,3700 900,3700 900,3600 800,3600 700,3600 700,3700 600,3700 600,3600 
			500,3600 400,3600 400,3500 700,3500 800,3500 900,3500 1000,3500 1100,3500 1100,3400 1100,3300 1000,3300 600,3300 400,3300 
			300,3300 200,3300 200,3400 100,3400 100,3300 100,3200 		"/>
		<polygon style="fill-rule:evenodd;clip-rule:evenodd;fill:#513529;" points="1500,3300 1500,3200 1600,3200 1600,3300 1500,3300 
					"/>
		<polygon style="fill-rule:evenodd;clip-rule:evenodd;" points="1600,3300 1600,3200 1800,3200 1800,3300 1600,3300 		"/>
		<polygon style="fill-rule:evenodd;clip-rule:evenodd;fill:#513529;" points="1800,3300 1800,3200 1900,3200 1900,3300 1800,3300 
					"/>
		<polygon style="fill-rule:evenodd;clip-rule:evenodd;fill:#745244;" points="1900,3300 1900,3200 2000,3200 2000,3300 1900,3300 
					"/>
		<polygon style="fill-rule:evenodd;clip-rule:evenodd;fill:#8D8B5D;" points="2300,3200 3100,3200 3200,3200 3300,3200 3300,3300 
			2500,3300 2400,3300 2300,3300 2300,3200 		"/>
		<polygon style="fill-rule:evenodd;clip-rule:evenodd;fill:#513529;" points="3900,3300 3900,3200 4000,3200 4000,3300 3900,3300 
					"/>
		<polygon style="fill-rule:evenodd;clip-rule:evenodd;" points="4000,3300 4000,3200 4200,3200 4200,3300 4000,3300 		"/>
		<polygon style="fill-rule:evenodd;clip-rule:evenodd;fill:#513529;" points="4200,3300 4200,3200 4300,3200 4300,3300 4200,3300 
					"/>
		<polygon style="fill-rule:evenodd;clip-rule:evenodd;fill:#745244;" points="4300,3300 4300,3200 4400,3200 4400,3300 4300,3300 
					"/>
		<polygon style="fill-rule:evenodd;clip-rule:evenodd;fill:#394C58;" points="200,3400 200,3300 300,3300 400,3300 600,3300 
			1000,3300 1000,3400 400,3400 200,3400 		"/>
		<polygon style="fill-rule:evenodd;clip-rule:evenodd;fill:#28353E;" points="1000,3300 1100,3300 1100,3400 1100,3500 1000,3500 
			900,3500 800,3500 700,3500 400,3500 400,3400 1000,3400 1000,3300 		"/>
		<polygon style="fill-rule:evenodd;clip-rule:evenodd;fill:#513529;" points="1500,3300 1500,3500 1500,3600 1500,3700 1600,3700 
			1600,3800 1700,3800 1800,3800 1800,3700 1900,3700 1900,3600 1900,3500 1900,3300 2000,3300 2000,3500 2000,3800 1900,3800 
			1900,3900 1800,3900 1800,4000 1400,4000 1400,3900 1300,3900 1300,3800 1200,3800 1200,3600 1300,3600 1400,3600 1400,3500 
			1400,3400 1400,3300 1500,3300 		"/>
		<polygon style="fill-rule:evenodd;clip-rule:evenodd;" points="1500,3300 1600,3300 1600,3500 1600,3700 1500,3700 1500,3600 
			1500,3500 1500,3300 		"/>
		<polygon style="fill-rule:evenodd;clip-rule:evenodd;fill:#BBB887;" points="1600,3300 1800,3300 1800,3400 1700,3400 1700,3500 
			1600,3500 1600,3300 		"/>
		<polygon style="fill-rule:evenodd;clip-rule:evenodd;" points="1800,3400 1800,3300 1900,3300 1900,3500 1900,3600 1900,3700 
			1800,3700 1800,3600 1800,3400 		"/>
		<polygon style="fill-rule:evenodd;clip-rule:evenodd;fill:#513529;" points="3900,3300 3900,3500 3900,3600 3900,3700 4000,3700 
			4000,3800 4100,3800 4200,3800 4200,3700 4300,3700 4300,3600 4300,3500 4300,3300 4400,3300 4400,3400 4400,3800 4300,3800 
			4300,3900 4200,3900 4200,4000 3800,4000 3800,3900 3700,3900 3700,3800 3600,3800 3600,3600 3700,3600 3800,3600 3800,3500 
			3800,3400 3800,3300 3900,3300 		"/>
		<polygon style="fill-rule:evenodd;clip-rule:evenodd;" points="3900,3300 4000,3300 4000,3500 4000,3700 3900,3700 3900,3600 
			3900,3500 3900,3300 		"/>
		<polygon style="fill-rule:evenodd;clip-rule:evenodd;fill:#BBB887;" points="4000,3300 4200,3300 4200,3400 4100,3400 4100,3500 
			4000,3500 4000,3300 		"/>
		<polygon style="fill-rule:evenodd;clip-rule:evenodd;" points="4200,3400 4200,3300 4300,3300 4300,3500 4300,3600 4300,3700 
			4200,3700 4200,3600 4200,3400 		"/>
		<polygon style="fill-rule:evenodd;clip-rule:evenodd;" points="200,3400 400,3400 400,3500 300,3500 300,3600 300,3700 300,3800 
			200,3800 200,3700 200,3600 200,3400 		"/>
		<polygon style="fill-rule:evenodd;clip-rule:evenodd;fill:#6F6E49;" points="1700,3500 1700,3400 1800,3400 1800,3600 1700,3600 
			1700,3500 		"/>
		<polygon style="fill-rule:evenodd;clip-rule:evenodd;fill:#28353E;" points="2100,3400 2700,3400 3000,3400 3200,3400 3300,3400 
			3400,3400 3500,3400 3500,3500 2800,3500 2500,3500 2200,3500 2100,3500 2100,3400 		"/>
		<polygon style="fill-rule:evenodd;clip-rule:evenodd;fill:#6F6E49;" points="4100,3500 4100,3400 4200,3400 4200,3600 4100,3600 
			4100,3500 		"/>
		<polygon style="fill-rule:evenodd;clip-rule:evenodd;fill:#745244;" points="400,3500 400,3600 500,3600 500,3700 400,3700 
			300,3700 300,3600 300,3500 400,3500 		"/>
		<polygon style="fill-rule:evenodd;clip-rule:evenodd;fill:#8D8B5D;" points="1600,3500 1700,3500 1700,3600 1800,3600 1800,3700 
			1600,3700 1600,3500 		"/>
		<polygon style="fill-rule:evenodd;clip-rule:evenodd;fill:#8D8B5D;" points="4000,3500 4100,3500 4100,3600 4200,3600 4200,3700 
			4000,3700 4000,3500 		"/>
		<polygon style="fill-rule:evenodd;clip-rule:evenodd;fill:#513529;" points="500,3600 600,3600 600,3700 700,3700 700,3800 
			800,3800 900,3800 900,3700 1000,3700 1000,3600 1100,3600 1100,3700 1100,3800 1000,3800 1000,3900 900,3900 900,4000 500,4000 
			500,3900 400,3900 400,3800 300,3800 300,3700 400,3700 500,3700 500,3600 		"/>
		<polygon style="fill-rule:evenodd;clip-rule:evenodd;fill:#8D8B5D;" points="700,3700 700,3600 800,3600 900,3600 900,3700 
			700,3700 		"/>
		<polygon style="fill-rule:evenodd;clip-rule:evenodd;fill:#745244;" points="2700,3700 2700,3600 2800,3600 2900,3600 2900,3700 
			2800,3700 2700,3700 		"/>
		<polygon style="fill-rule:evenodd;clip-rule:evenodd;fill:#513529;" points="2900,3600 3000,3600 3000,3700 3100,3700 3100,3800 
			3200,3800 3300,3800 3300,3700 3400,3700 3400,3600 3500,3600 3500,3700 3500,3800 3400,3800 3400,3900 3300,3900 3300,4000 
			2900,4000 2900,3900 2800,3900 2800,3800 2700,3800 2700,3700 2800,3700 2900,3700 2900,3600 		"/>
		<polygon style="fill-rule:evenodd;clip-rule:evenodd;fill:#8D8B5D;" points="3100,3700 3100,3600 3200,3600 3300,3600 3300,3700 
			3100,3700 		"/>
		<polygon style="fill-rule:evenodd;clip-rule:evenodd;" points="700,3700 900,3700 900,3800 800,3800 700,3800 700,3700 		"/>
		<polygon style="fill-rule:evenodd;clip-rule:evenodd;" points="1600,3700 1800,3700 1800,3800 1700,3800 1600,3800 1600,3700 		
			"/>
		<polygon style="fill-rule:evenodd;clip-rule:evenodd;" points="3100,3700 3300,3700 3300,3800 3200,3800 3100,3800 3100,3700 		
			"/>
		<polygon style="fill-rule:evenodd;clip-rule:evenodd;" points="4000,3700 4200,3700 4200,3800 4100,3800 4000,3800 4000,3700 		
			"/>
		<polygon style="fill-rule:evenodd;clip-rule:evenodd;" points="300,3800 400,3800 400,3900 300,3900 300,3800 		"/>
		<polygon style="fill-rule:evenodd;clip-rule:evenodd;" points="1000,3900 1000,3800 1100,3800 1100,3900 1000,3900 		"/>
		<polygon style="fill-rule:evenodd;clip-rule:evenodd;" points="1200,3800 1300,3800 1300,3900 1200,3900 1200,3800 		"/>
		<polygon style="fill-rule:evenodd;clip-rule:evenodd;" points="1900,3900 1900,3800 2000,3800 2000,3900 1900,3900 		"/>
		<polygon style="fill-rule:evenodd;clip-rule:evenodd;" points="2700,3800 2800,3800 2800,3900 2700,3900 2700,3800 		"/>
		<polygon style="fill-rule:evenodd;clip-rule:evenodd;" points="3400,3900 3400,3800 3500,3800 3500,3900 3400,3900 		"/>
		<polygon style="fill-rule:evenodd;clip-rule:evenodd;" points="3600,3800 3700,3800 3700,3900 3600,3900 3600,3800 		"/>
		<polygon style="fill-rule:evenodd;clip-rule:evenodd;" points="4300,3900 4300,3800 4400,3800 4400,3900 4300,3900 		"/>
		<polygon style="fill-rule:evenodd;clip-rule:evenodd;" points="400,3900 500,3900 500,4000 400,4000 400,3900 		"/>
		<polygon style="fill-rule:evenodd;clip-rule:evenodd;" points="900,4000 900,3900 1000,3900 1000,4000 900,4000 		"/>
		<polygon style="fill-rule:evenodd;clip-rule:evenodd;" points="1300,3900 1400,3900 1400,4000 1300,4000 1300,3900 		"/>
		<polygon style="fill-rule:evenodd;clip-rule:evenodd;" points="1800,4000 1800,3900 1900,3900 1900,4000 1800,4000 		"/>
		<polygon style="fill-rule:evenodd;clip-rule:evenodd;" points="2800,3900 2900,3900 2900,4000 2800,4000 2800,3900 		"/>
		<polygon style="fill-rule:evenodd;clip-rule:evenodd;" points="3300,4000 3300,3900 3400,3900 3400,4000 3300,4000 		"/>
		<polygon style="fill-rule:evenodd;clip-rule:evenodd;" points="3700,3900 3800,3900 3800,4000 3700,4000 3700,3900 		"/>
		<polygon style="fill-rule:evenodd;clip-rule:evenodd;" points="4200,4000 4200,3900 4300,3900 4300,4000 4200,4000 		"/>
		<polygon style="fill-rule:evenodd;clip-rule:evenodd;" points="500,4100 500,4000 900,4000 900,4100 500,4100 		"/>
		<polygon style="fill-rule:evenodd;clip-rule:evenodd;" points="1400,4100 1400,4000 1800,4000 1800,4100 1400,4100 		"/>
		<polygon style="fill-rule:evenodd;clip-rule:evenodd;" points="2900,4100 2900,4000 3300,4000 3300,4100 2900,4100 		"/>
		<polygon style="fill-rule:evenodd;clip-rule:evenodd;" points="3800,4100 3800,4000 4200,4000 4200,4100 3800,4100 		"/>
	</g>
</g>
</svg>
