<svg version="1.1" id="Capa_1" xmlns="http://www.w3.org/2000/svg" xmlns:xlink="http://www.w3.org/1999/xlink" x="0px" y="0px" viewBox="0 0 512 512" style="enable-background:new 0 0 512 512;" xml:space="preserve">
<g>
	
		<ellipse transform="matrix(0.1334 -0.9911 0.9911 0.1334 -64.9836 578.4753)" style="fill:none;stroke:#000000;stroke-width:15;stroke-linecap:round;stroke-linejoin:round;stroke-miterlimit:10;" cx="298.281" cy="326.395" rx="25.444" ry="17.767"/>
	
		<ellipse transform="matrix(0.3013 -0.9535 0.9535 0.3013 -114.1764 589.0166)" style="fill:none;stroke:#000000;stroke-width:15;stroke-linecap:round;stroke-linejoin:round;stroke-miterlimit:10;" cx="344.822" cy="372.415" rx="25.444" ry="17.767"/>
	
		<ellipse transform="matrix(0.9911 -0.1334 0.1334 0.9911 -41.4359 34.2561)" style="fill:none;stroke:#000000;stroke-width:15;stroke-linecap:round;stroke-linejoin:round;stroke-miterlimit:10;" cx="234.961" cy="326.395" rx="17.767" ry="25.444"/>
	
		<ellipse transform="matrix(0.9535 -0.3013 0.3013 0.9535 -103.4448 74.0696)" style="fill:none;stroke:#000000;stroke-width:15;stroke-linecap:round;stroke-linejoin:round;stroke-miterlimit:10;" cx="188.42" cy="372.415" rx="17.767" ry="25.444"/>
	<path style="fill:none;stroke:#000000;stroke-width:15;stroke-linecap:round;stroke-linejoin:round;stroke-miterlimit:10;" d="&#10;&#9;&#9;M311.374,407.375c-1.63-2.83-5.796-9.268-10.967-17.095c-16.006-24.228-51.565-24.228-67.571,0&#10;&#9;&#9;c-5.171,7.828-9.338,14.265-10.967,17.095c-5.14,8.926-9.813,19-9.813,26.126c0,17.413,14.133,31.525,31.554,31.49&#10;&#9;&#9;c12.655,0,33.366,0,46.022,0c17.421,0.035,31.555-14.077,31.555-31.49C321.186,426.375,316.514,416.301,311.374,407.375z"/>
	<path style="fill:none;stroke:#000000;stroke-width:15;stroke-linecap:round;stroke-linejoin:round;stroke-miterlimit:10;" d="&#10;&#9;&#9;M398.421,364.085V36.172c0-15.835,12.837-28.672,28.672-28.672H75.172c-13.293,0-24.07,10.776-24.07,24.07v81.037"/>
	<path style="fill:none;stroke:#000000;stroke-width:15;stroke-linecap:round;stroke-linejoin:round;stroke-miterlimit:10;" d="&#10;&#9;&#9;M51.102,147.607v338.601c0,10.102,8.19,18.292,18.292,18.292h310.735c10.102,0,18.292-8.19,18.292-18.292v-86.123"/>
	<path style="fill:none;stroke:#000000;stroke-width:15;stroke-linecap:round;stroke-linejoin:round;stroke-miterlimit:10;" d="&#10;&#9;&#9;M403.814,83.265h41.565c8.571,0,15.519-6.948,15.519-15.519V35.434c0-15.428-12.507-27.934-27.934-27.934h-5.871"/>
	
		<line style="fill:none;stroke:#000000;stroke-width:15;stroke-linecap:round;stroke-linejoin:round;stroke-miterlimit:10;" x1="89.188" y1="443.72" x2="170.676" y2="443.72"/>
	
		<line style="fill:none;stroke:#000000;stroke-width:15;stroke-linecap:round;stroke-linejoin:round;stroke-miterlimit:10;" x1="89.188" y1="411.55" x2="136.725" y2="411.55"/>
	
		<line style="fill:none;stroke:#000000;stroke-width:15;stroke-linecap:round;stroke-linejoin:round;stroke-miterlimit:10;" x1="209.571" y1="68.034" x2="89.188" y2="68.034"/>
	
		<line style="fill:none;stroke:#000000;stroke-width:15;stroke-linecap:round;stroke-linejoin:round;stroke-miterlimit:10;" x1="328.956" y1="112.607" x2="89.188" y2="112.607"/>
	
		<line style="fill:none;stroke:#000000;stroke-width:15;stroke-linecap:round;stroke-linejoin:round;stroke-miterlimit:10;" x1="328.956" y1="149.903" x2="89.188" y2="149.903"/>
	
		<line style="fill:none;stroke:#000000;stroke-width:15;stroke-linecap:round;stroke-linejoin:round;stroke-miterlimit:10;" x1="328.956" y1="187.198" x2="89.188" y2="187.198"/>
	
		<line style="fill:none;stroke:#000000;stroke-width:15;stroke-linecap:round;stroke-linejoin:round;stroke-miterlimit:10;" x1="328.956" y1="224.494" x2="89.188" y2="224.494"/>
	
		<line style="fill:none;stroke:#000000;stroke-width:15;stroke-linecap:round;stroke-linejoin:round;stroke-miterlimit:10;" x1="239.098" y1="262.78" x2="89.188" y2="262.78"/>
	
		<line style="fill:none;stroke:#000000;stroke-width:15;stroke-linecap:round;stroke-linejoin:round;stroke-miterlimit:10;" x1="136.725" y1="296.811" x2="89.188" y2="296.811"/>
</g>
<g>
</g>
<g>
</g>
<g>
</g>
<g>
</g>
<g>
</g>
<g>
</g>
<g>
</g>
<g>
</g>
<g>
</g>
<g>
</g>
<g>
</g>
<g>
</g>
<g>
</g>
<g>
</g>
<g>
</g>
</svg>